<svg width="70" height="109" viewBox="0 0 70 109" fill="none" xmlns="http://www.w3.org/2000/svg">
<g opacity="0.5" clip-path="url(#clip0_96_1481)">
<path d="M39.03 54.3499C39.1515 54.3499 39.25 54.2514 39.25 54.1299C39.25 54.0084 39.1515 53.9099 39.03 53.9099C38.9085 53.9099 38.81 54.0084 38.81 54.1299C38.81 54.2514 38.9085 54.3499 39.03 54.3499Z" fill="black"/>
<path d="M37.86 61.7701C37.9815 61.7701 38.08 61.6716 38.08 61.5501C38.08 61.4286 37.9815 61.3301 37.86 61.3301C37.7385 61.3301 37.64 61.4286 37.64 61.5501C37.64 61.6716 37.7385 61.7701 37.86 61.7701Z" fill="black"/>
<path d="M34.45 68.46C34.5715 68.46 34.67 68.3615 34.67 68.24C34.67 68.1185 34.5715 68.02 34.45 68.02C34.3285 68.02 34.23 68.1185 34.23 68.24C34.23 68.3615 34.3285 68.46 34.45 68.46Z" fill="black"/>
<path d="M29.14 73.7701C29.2615 73.7701 29.36 73.6716 29.36 73.5501C29.36 73.4286 29.2615 73.3301 29.14 73.3301C29.0185 73.3301 28.92 73.4286 28.92 73.5501C28.92 73.6716 29.0185 73.7701 29.14 73.7701Z" fill="black"/>
<path d="M22.45 77.18C22.57 77.18 22.67 77.08 22.67 76.96C22.67 76.84 22.57 76.74 22.45 76.74C22.33 76.74 22.23 76.84 22.23 76.96C22.24 77.08 22.33 77.18 22.45 77.18Z" fill="black"/>
<path d="M15.03 78.3499C15.1515 78.3499 15.25 78.2514 15.25 78.1299C15.25 78.0084 15.1515 77.9099 15.03 77.9099C14.9085 77.9099 14.81 78.0084 14.81 78.1299C14.81 78.2514 14.9085 78.3499 15.03 78.3499Z" fill="black"/>
<path d="M7.62002 77.18C7.74002 77.18 7.84002 77.08 7.84002 76.96C7.84002 76.84 7.74002 76.74 7.62002 76.74C7.50002 76.74 7.40002 76.84 7.40002 76.96C7.40002 77.08 7.50002 77.18 7.62002 77.18Z" fill="black"/>
<path d="M0.930012 73.7801C1.05704 73.7801 1.16001 73.6771 1.16001 73.5501C1.16001 73.423 1.05704 73.3201 0.930012 73.3201C0.802986 73.3201 0.700012 73.423 0.700012 73.5501C0.700012 73.6771 0.802986 73.7801 0.930012 73.7801Z" fill="black"/>
<path d="M0.929974 34.99C1.07909 34.99 1.19997 34.8691 1.19997 34.72C1.19997 34.5708 1.07909 34.45 0.929974 34.45C0.780857 34.45 0.659973 34.5708 0.659973 34.72C0.659973 34.8691 0.780857 34.99 0.929974 34.99Z" fill="black"/>
<path d="M7.61998 31.57C7.76998 31.57 7.88998 31.45 7.88998 31.3C7.88998 31.15 7.76998 31.03 7.61998 31.03C7.46998 31.03 7.34998 31.15 7.34998 31.3C7.34998 31.46 7.46998 31.57 7.61998 31.57Z" fill="black"/>
<path d="M15.03 30.3799C15.17 30.3799 15.28 30.2699 15.28 30.1299C15.28 29.9899 15.17 29.8799 15.03 29.8799C14.89 29.8799 14.78 29.9899 14.78 30.1299C14.79 30.2699 14.9 30.3799 15.03 30.3799Z" fill="black"/>
<path d="M22.45 31.5601C22.59 31.5601 22.7 31.4501 22.7 31.3101C22.7 31.1701 22.59 31.0601 22.45 31.0601C22.31 31.0601 22.2 31.1701 22.2 31.3101C22.2 31.4501 22.31 31.5601 22.45 31.5601Z" fill="black"/>
<path d="M29.14 34.97C29.28 34.97 29.39 34.86 29.39 34.72C29.39 34.58 29.28 34.47 29.14 34.47C29 34.47 28.89 34.58 28.89 34.72C28.89 34.85 29 34.97 29.14 34.97Z" fill="black"/>
<path d="M34.45 40.26C34.58 40.26 34.68 40.16 34.68 40.03C34.68 39.9 34.58 39.8 34.45 39.8C34.32 39.8 34.22 39.9 34.22 40.03C34.22 40.16 34.32 40.26 34.45 40.26Z" fill="black"/>
<path d="M37.86 46.94C37.9815 46.94 38.08 46.8415 38.08 46.72C38.08 46.5985 37.9815 46.5 37.86 46.5C37.7385 46.5 37.64 46.5985 37.64 46.72C37.64 46.8415 37.7385 46.94 37.86 46.94Z" fill="black"/>
<path d="M45.03 54.8799C45.4442 54.8799 45.78 54.5441 45.78 54.1299C45.78 53.7157 45.4442 53.3799 45.03 53.3799C44.6158 53.3799 44.28 53.7157 44.28 54.1299C44.28 54.5441 44.6158 54.8799 45.03 54.8799Z" fill="black"/>
<path d="M44.09 62.3401C44.5042 62.3401 44.84 62.0043 44.84 61.5901C44.84 61.1759 44.5042 60.8401 44.09 60.8401C43.6758 60.8401 43.34 61.1759 43.34 61.5901C43.34 62.0043 43.6758 62.3401 44.09 62.3401Z" fill="black"/>
<path d="M41.32 69.3201C41.72 69.3201 42.05 68.9901 42.05 68.5901C42.05 68.1901 41.72 67.8601 41.32 67.8601C40.92 67.8601 40.59 68.1901 40.59 68.5901C40.59 68.9901 40.92 69.3201 41.32 69.3201Z" fill="black"/>
<path d="M36.9 75.3999C37.3 75.3999 37.63 75.0699 37.63 74.6699C37.63 74.2699 37.3 73.9399 36.9 73.9399C36.5 73.9399 36.17 74.2699 36.17 74.6699C36.17 75.0699 36.5 75.3999 36.9 75.3999Z" fill="black"/>
<path d="M31.11 80.2C31.51 80.2 31.84 79.87 31.84 79.47C31.84 79.07 31.51 78.74 31.11 78.74C30.71 78.74 30.38 79.07 30.38 79.47C30.38 79.87 30.71 80.2 31.11 80.2Z" fill="black"/>
<path d="M24.31 83.3999C24.71 83.3999 25.04 83.0699 25.04 82.6699C25.04 82.2699 24.71 81.9399 24.31 81.9399C23.91 81.9399 23.58 82.2699 23.58 82.6699C23.57 83.0699 23.9 83.3999 24.31 83.3999Z" fill="black"/>
<path d="M16.92 84.8201C17.3342 84.8201 17.67 84.4843 17.67 84.0701C17.67 83.6559 17.3342 83.3201 16.92 83.3201C16.5058 83.3201 16.17 83.6559 16.17 84.0701C16.17 84.4843 16.5058 84.8201 16.92 84.8201Z" fill="black"/>
<path d="M9.40997 84.3501C9.82419 84.3501 10.16 84.0143 10.16 83.6001C10.16 83.1859 9.82419 82.8501 9.40997 82.8501C8.99576 82.8501 8.65997 83.1859 8.65997 83.6001C8.65997 84.0143 8.99576 84.3501 9.40997 84.3501Z" fill="black"/>
<path d="M2.26001 82.03C2.67422 82.03 3.01001 81.6942 3.01001 81.28C3.01001 80.8658 2.67422 80.53 2.26001 80.53C1.8458 80.53 1.51001 80.8658 1.51001 81.28C1.51001 81.6942 1.8458 82.03 2.26001 82.03Z" fill="black"/>
<path d="M2.26002 27.7899C2.70185 27.7899 3.06002 27.4318 3.06002 26.9899C3.06002 26.5481 2.70185 26.1899 2.26002 26.1899C1.81819 26.1899 1.46002 26.5481 1.46002 26.9899C1.46002 27.4318 1.81819 27.7899 2.26002 27.7899Z" fill="black"/>
<path d="M9.40998 25.4601C9.85181 25.4601 10.21 25.1019 10.21 24.6601C10.21 24.2183 9.85181 23.8601 9.40998 23.8601C8.96816 23.8601 8.60999 24.2183 8.60999 24.6601C8.60999 25.1019 8.96816 25.4601 9.40998 25.4601Z" fill="black"/>
<path d="M16.92 24.9699C17.3508 24.9699 17.7 24.6207 17.7 24.1899C17.7 23.7591 17.3508 23.4099 16.92 23.4099C16.4892 23.4099 16.14 23.7591 16.14 24.1899C16.14 24.6207 16.4892 24.9699 16.92 24.9699Z" fill="black"/>
<path d="M24.31 26.3801C24.74 26.3801 25.09 26.0301 25.09 25.6001C25.09 25.1701 24.74 24.8201 24.31 24.8201C23.88 24.8201 23.53 25.1701 23.53 25.6001C23.53 26.0301 23.87 26.3801 24.31 26.3801Z" fill="black"/>
<path d="M31.11 29.59C31.54 29.59 31.89 29.24 31.89 28.81C31.89 28.38 31.54 28.03 31.11 28.03C30.68 28.03 30.33 28.38 30.33 28.81C30.33 29.24 30.68 29.59 31.11 29.59Z" fill="black"/>
<path d="M36.9 34.3601C37.32 34.3601 37.67 34.0201 37.67 33.5901C37.67 33.1601 37.33 32.8201 36.9 32.8201C36.47 32.8201 36.13 33.1601 36.13 33.5901C36.13 34.0201 36.48 34.3601 36.9 34.3601Z" fill="black"/>
<path d="M41.32 40.4499C41.74 40.4499 42.09 40.1099 42.09 39.6799C42.09 39.2499 41.75 38.9099 41.32 38.9099C40.9 38.9099 40.55 39.2499 40.55 39.6799C40.55 40.1099 40.9 40.4499 41.32 40.4499Z" fill="black"/>
<path d="M44.09 47.4199C44.5042 47.4199 44.84 47.0841 44.84 46.6699C44.84 46.2557 44.5042 45.9199 44.09 45.9199C43.6758 45.9199 43.34 46.2557 43.34 46.6699C43.34 47.0841 43.6758 47.4199 44.09 47.4199Z" fill="black"/>
<path d="M51.03 55.3999C51.73 55.3999 52.29 54.8299 52.29 54.1399C52.29 53.4399 51.72 52.8799 51.03 52.8799C50.33 52.8799 49.77 53.4499 49.77 54.1399C49.77 54.8299 50.34 55.3999 51.03 55.3999Z" fill="black"/>
<path d="M50.25 62.8801C50.95 62.8801 51.51 62.3101 51.51 61.6201C51.51 60.9201 50.94 60.3601 50.25 60.3601C49.55 60.3601 48.99 60.9301 48.99 61.6201C48.98 62.3201 49.55 62.8801 50.25 62.8801Z" fill="black"/>
<path d="M47.92 70.04C48.6159 70.04 49.18 69.4759 49.18 68.78C49.18 68.0841 48.6159 67.52 47.92 67.52C47.2241 67.52 46.66 68.0841 46.66 68.78C46.66 69.4759 47.2241 70.04 47.92 70.04Z" fill="black"/>
<path d="M44.16 76.56C44.86 76.56 45.42 75.99 45.42 75.3C45.42 74.6 44.85 74.04 44.16 74.04C43.46 74.04 42.9 74.61 42.9 75.3C42.89 75.99 43.46 76.56 44.16 76.56Z" fill="black"/>
<path d="M39.12 82.1499C39.82 82.1499 40.38 81.5799 40.38 80.8899C40.38 80.1899 39.81 79.6299 39.12 79.6299C38.42 79.6299 37.86 80.1999 37.86 80.8899C37.86 81.5799 38.43 82.1499 39.12 82.1499Z" fill="black"/>
<path d="M33.03 86.57C33.73 86.57 34.29 86 34.29 85.31C34.29 84.61 33.72 84.05 33.03 84.05C32.33 84.05 31.77 84.62 31.77 85.31C31.77 86.01 32.34 86.57 33.03 86.57Z" fill="black"/>
<path d="M26.16 89.6401C26.86 89.6401 27.42 89.0701 27.42 88.3801C27.42 87.6801 26.85 87.1201 26.16 87.1201C25.46 87.1201 24.9 87.6901 24.9 88.3801C24.9 89.0701 25.46 89.6401 26.16 89.6401Z" fill="black"/>
<path d="M18.8 91.1999C19.5 91.1999 20.06 90.6299 20.06 89.9399C20.06 89.2399 19.49 88.6799 18.8 88.6799C18.1 88.6799 17.54 89.2499 17.54 89.9399C17.53 90.6299 18.1 91.1999 18.8 91.1999Z" fill="black"/>
<path d="M11.27 91.2199C11.9769 91.2199 12.55 90.6468 12.55 89.9399C12.55 89.233 11.9769 88.6599 11.27 88.6599C10.5631 88.6599 9.98999 89.233 9.98999 89.9399C9.98999 90.6468 10.5631 91.2199 11.27 91.2199Z" fill="black"/>
<path d="M3.91 89.6501C4.62 89.6501 5.19 89.0801 5.19 88.3701C5.19 87.6601 4.62 87.0901 3.91 87.0901C3.2 87.0901 2.63 87.6601 2.63 88.3701C2.63 89.0801 3.2 89.6501 3.91 89.6501Z" fill="black"/>
<path d="M3.91002 21.2301C4.65002 21.2301 5.24002 20.6301 5.24002 19.9001C5.24002 19.1601 4.64002 18.5701 3.91002 18.5701C3.17002 18.5701 2.58002 19.1701 2.58002 19.9001C2.58002 20.6301 3.18002 21.2301 3.91002 21.2301Z" fill="black"/>
<path d="M11.27 19.64C11.9935 19.64 12.58 19.0535 12.58 18.33C12.58 17.6065 11.9935 17.02 11.27 17.02C10.5465 17.02 9.96002 17.6065 9.96002 18.33C9.96002 19.0535 10.5465 19.64 11.27 19.64Z" fill="black"/>
<path d="M18.8 19.64C19.5235 19.64 20.11 19.0535 20.11 18.33C20.11 17.6065 19.5235 17.02 18.8 17.02C18.0765 17.02 17.49 17.6065 17.49 18.33C17.49 19.0535 18.0765 19.64 18.8 19.64Z" fill="black"/>
<path d="M26.16 21.2101C26.89 21.2101 27.47 20.6201 27.47 19.9001C27.47 19.1701 26.88 18.5901 26.16 18.5901C25.44 18.5901 24.85 19.1801 24.85 19.9001C24.85 20.6201 25.43 21.2101 26.16 21.2101Z" fill="black"/>
<path d="M33.03 24.2499C33.75 24.2499 34.33 23.6699 34.33 22.9499C34.33 22.2299 33.75 21.6499 33.03 21.6499C32.31 21.6499 31.73 22.2299 31.73 22.9499C31.74 23.6699 32.32 24.2499 33.03 24.2499Z" fill="black"/>
<path d="M39.12 28.6801C39.84 28.6801 40.42 28.1001 40.42 27.3801C40.42 26.6601 39.84 26.0801 39.12 26.0801C38.4 26.0801 37.82 26.6601 37.82 27.3801C37.83 28.1001 38.41 28.6801 39.12 28.6801Z" fill="black"/>
<path d="M44.16 34.2699C44.88 34.2699 45.46 33.6899 45.46 32.9699C45.46 32.2499 44.88 31.6699 44.16 31.6699C43.44 31.6699 42.86 32.2499 42.86 32.9699C42.86 33.6899 43.44 34.2699 44.16 34.2699Z" fill="black"/>
<path d="M47.92 40.77C48.6269 40.77 49.2 40.1969 49.2 39.49C49.2 38.783 48.6269 38.21 47.92 38.21C47.2131 38.21 46.64 38.783 46.64 39.49C46.64 40.1969 47.2131 40.77 47.92 40.77Z" fill="black"/>
<path d="M50.25 47.9301C50.9569 47.9301 51.53 47.357 51.53 46.6501C51.53 45.9432 50.9569 45.3701 50.25 45.3701C49.543 45.3701 48.97 45.9432 48.97 46.6501C48.97 47.357 49.543 47.9301 50.25 47.9301Z" fill="black"/>
<path d="M57.03 55.9301C58.02 55.9301 58.83 55.1301 58.83 54.1301C58.83 53.1401 58.03 52.3301 57.03 52.3301C56.04 52.3301 55.23 53.1301 55.23 54.1301C55.24 55.1301 56.04 55.9301 57.03 55.9301Z" fill="black"/>
<path d="M56.36 63.4301C57.3541 63.4301 58.16 62.6242 58.16 61.6301C58.16 60.636 57.3541 59.8301 56.36 59.8301C55.3659 59.8301 54.56 60.636 54.56 61.6301C54.56 62.6242 55.3659 63.4301 56.36 63.4301Z" fill="black"/>
<path d="M54.36 70.6901C55.3541 70.6901 56.16 69.8842 56.16 68.8901C56.16 67.896 55.3541 67.0901 54.36 67.0901C53.3659 67.0901 52.56 67.896 52.56 68.8901C52.56 69.8842 53.3659 70.6901 54.36 70.6901Z" fill="black"/>
<path d="M51.09 77.4701C52.08 77.4701 52.89 76.6701 52.89 75.6701C52.89 74.6801 52.09 73.8701 51.09 73.8701C50.09 73.8701 49.29 74.6701 49.29 75.6701C49.29 76.6701 50.1 77.4701 51.09 77.4701Z" fill="black"/>
<path d="M46.66 83.56C47.65 83.56 48.46 82.76 48.46 81.76C48.46 80.76 47.66 79.96 46.66 79.96C45.66 79.96 44.86 80.76 44.86 81.76C44.86 82.76 45.67 83.56 46.66 83.56Z" fill="black"/>
<path d="M41.22 88.7699C42.2141 88.7699 43.02 87.964 43.02 86.9699C43.02 85.9758 42.2141 85.1699 41.22 85.1699C40.2259 85.1699 39.42 85.9758 39.42 86.9699C39.42 87.964 40.2259 88.7699 41.22 88.7699Z" fill="black"/>
<path d="M34.94 92.9201C35.93 92.9201 36.74 92.1201 36.74 91.1201C36.74 90.1201 35.94 89.3201 34.94 89.3201C33.95 89.3201 33.14 90.1201 33.14 91.1201C33.14 92.1201 33.94 92.9201 34.94 92.9201Z" fill="black"/>
<path d="M28.01 95.87C29 95.87 29.81 95.07 29.81 94.07C29.81 93.08 29.01 92.27 28.01 92.27C27.02 92.27 26.21 93.07 26.21 94.07C26.22 95.07 27.02 95.87 28.01 95.87Z" fill="black"/>
<path d="M20.67 97.55C21.66 97.55 22.47 96.75 22.47 95.75C22.47 94.76 21.67 93.95 20.67 93.95C19.68 93.95 18.87 94.75 18.87 95.75C18.88 96.75 19.68 97.55 20.67 97.55Z" fill="black"/>
<path d="M13.15 97.89C14.14 97.89 14.95 97.09 14.95 96.09C14.95 95.09 14.15 94.29 13.15 94.29C12.16 94.29 11.35 95.09 11.35 96.09C11.35 97.09 12.16 97.89 13.15 97.89Z" fill="black"/>
<path d="M5.69 96.89C6.69 96.89 7.5 96.08 7.5 95.08C7.5 94.08 6.69 93.27 5.69 93.27C4.69 93.27 3.88 94.08 3.88 95.08C3.88 96.08 4.69 96.89 5.69 96.89Z" fill="black"/>
<path d="M-1.47 94.57C-0.470002 94.57 0.339999 93.76 0.339999 92.76C0.339999 91.76 -0.470002 90.95 -1.47 90.95C-2.47 90.95 -3.28 91.76 -3.28 92.76C-3.29 93.76 -2.47 94.57 -1.47 94.57Z" fill="black"/>
<path d="M-1.46999 17.3799C-0.439989 17.3799 0.390012 16.5499 0.390012 15.5199C0.390012 14.4899 -0.439989 13.6599 -1.46999 13.6599C-2.49999 13.6599 -3.32999 14.4899 -3.32999 15.5199C-3.33999 16.5399 -2.49999 17.3799 -1.46999 17.3799Z" fill="black"/>
<path d="M5.69003 15.0401C6.71175 15.0401 7.54003 14.2118 7.54003 13.1901C7.54003 12.1684 6.71175 11.3401 5.69003 11.3401C4.6683 11.3401 3.84003 12.1684 3.84003 13.1901C3.84003 14.2118 4.6683 15.0401 5.69003 15.0401Z" fill="black"/>
<path d="M13.15 14.0301C14.1717 14.0301 15 13.2018 15 12.1801C15 11.1584 14.1717 10.3301 13.15 10.3301C12.1283 10.3301 11.3 11.1584 11.3 12.1801C11.3 13.2018 12.1283 14.0301 13.15 14.0301Z" fill="black"/>
<path d="M20.67 14.3599C21.6917 14.3599 22.52 13.5316 22.52 12.5099C22.52 11.4882 21.6917 10.6599 20.67 10.6599C19.6483 10.6599 18.82 11.4882 18.82 12.5099C18.82 13.5316 19.6483 14.3599 20.67 14.3599Z" fill="black"/>
<path d="M28.01 16.0401C29.0318 16.0401 29.86 15.2118 29.86 14.1901C29.86 13.1684 29.0318 12.3401 28.01 12.3401C26.9883 12.3401 26.16 13.1684 26.16 14.1901C26.16 15.2118 26.9883 16.0401 28.01 16.0401Z" fill="black"/>
<path d="M34.94 18.9801C35.95 18.9801 36.77 18.1601 36.77 17.1501C36.77 16.1401 35.95 15.3201 34.94 15.3201C33.93 15.3201 33.11 16.1401 33.11 17.1501C33.11 18.1601 33.93 18.9801 34.94 18.9801Z" fill="black"/>
<path d="M41.22 23.13C42.23 23.13 43.05 22.31 43.05 21.3C43.05 20.29 42.23 19.47 41.22 19.47C40.21 19.47 39.39 20.29 39.39 21.3C39.39 22.31 40.21 23.13 41.22 23.13Z" fill="black"/>
<path d="M46.66 28.3099C47.66 28.3099 48.47 27.4999 48.47 26.4999C48.47 25.4999 47.66 24.6899 46.66 24.6899C45.66 24.6899 44.85 25.4999 44.85 26.4999C44.85 27.4999 45.66 28.3099 46.66 28.3099Z" fill="black"/>
<path d="M51.09 34.4C52.0897 34.4 52.9 33.5897 52.9 32.59C52.9 31.5904 52.0897 30.78 51.09 30.78C50.0904 30.78 49.28 31.5904 49.28 32.59C49.28 33.5897 50.0904 34.4 51.09 34.4Z" fill="black"/>
<path d="M54.36 41.1901C55.36 41.1901 56.17 40.3801 56.17 39.3801C56.17 38.3801 55.36 37.5701 54.36 37.5701C53.36 37.5701 52.55 38.3801 52.55 39.3801C52.54 40.3801 53.36 41.1901 54.36 41.1901Z" fill="black"/>
<path d="M56.36 48.4401C57.3596 48.4401 58.17 47.6297 58.17 46.6301C58.17 45.6304 57.3596 44.8201 56.36 44.8201C55.3603 44.8201 54.55 45.6304 54.55 46.6301C54.55 47.6297 55.3603 48.4401 56.36 48.4401Z" fill="black"/>
<path d="M63.03 55.96C64.04 55.96 64.86 55.1401 64.86 54.1301C64.86 53.1201 64.04 52.3 63.03 52.3C62.02 52.3 61.2 53.1201 61.2 54.1301C61.2 55.1401 62.02 55.96 63.03 55.96Z" fill="black"/>
<path d="M62.44 63.4701C63.45 63.4701 64.27 62.6501 64.27 61.6401C64.27 60.6301 63.45 59.8101 62.44 59.8101C61.43 59.8101 60.61 60.6301 60.61 61.6401C60.61 62.6501 61.43 63.4701 62.44 63.4701Z" fill="black"/>
<path d="M60.69 70.7999C61.7 70.7999 62.52 69.9799 62.52 68.9699C62.52 67.9599 61.7 67.1399 60.69 67.1399C59.68 67.1399 58.86 67.9599 58.86 68.9699C58.86 69.9799 59.67 70.7999 60.69 70.7999Z" fill="black"/>
<path d="M57.8 77.7601C58.81 77.7601 59.63 76.9401 59.63 75.9301C59.63 74.9201 58.81 74.1001 57.8 74.1001C56.79 74.1001 55.97 74.9201 55.97 75.9301C55.97 76.9401 56.79 77.7601 57.8 77.7601Z" fill="black"/>
<path d="M53.87 84.2C54.8918 84.2 55.72 83.3717 55.72 82.35C55.72 81.3283 54.8918 80.5 53.87 80.5C52.8483 80.5 52.02 81.3283 52.02 82.35C52.02 83.3717 52.8483 84.2 53.87 84.2Z" fill="black"/>
<path d="M48.98 89.92C50.0017 89.92 50.83 89.0917 50.83 88.07C50.83 87.0482 50.0017 86.22 48.98 86.22C47.9583 86.22 47.13 87.0482 47.13 88.07C47.13 89.0917 47.9583 89.92 48.98 89.92Z" fill="black"/>
<path d="M43.25 94.8101C44.27 94.8101 45.1 93.9801 45.1 92.9601C45.1 91.9401 44.27 91.1101 43.25 91.1101C42.23 91.1101 41.4 91.9401 41.4 92.9601C41.4 93.9901 42.23 94.8101 43.25 94.8101Z" fill="black"/>
<path d="M36.83 98.7301C37.8407 98.7301 38.66 97.9108 38.66 96.9001C38.66 95.8894 37.8407 95.0701 36.83 95.0701C35.8193 95.0701 35 95.8894 35 96.9001C35 97.9108 35.8193 98.7301 36.83 98.7301Z" fill="black"/>
<path d="M29.87 101.61C30.88 101.61 31.7 100.79 31.7 99.78C31.7 98.77 30.88 97.95 29.87 97.95C28.86 97.95 28.04 98.77 28.04 99.78C28.04 100.79 28.86 101.61 29.87 101.61Z" fill="black"/>
<path d="M22.54 103.37C23.55 103.37 24.37 102.55 24.37 101.54C24.37 100.53 23.55 99.71 22.54 99.71C21.53 99.71 20.71 100.53 20.71 101.54C20.71 102.55 21.53 103.37 22.54 103.37Z" fill="black"/>
<path d="M15.03 103.96C16.04 103.96 16.86 103.14 16.86 102.13C16.86 101.12 16.04 100.3 15.03 100.3C14.02 100.3 13.2 101.12 13.2 102.13C13.2 103.14 14.02 103.96 15.03 103.96Z" fill="black"/>
<path d="M7.52997 103.35C8.5296 103.35 9.33997 102.54 9.33997 101.54C9.33997 100.54 8.5296 99.73 7.52997 99.73C6.53033 99.73 5.71997 100.54 5.71997 101.54C5.71997 102.54 6.53033 103.35 7.52997 103.35Z" fill="black"/>
<path d="M0.200016 101.6C1.20002 101.6 2.01001 100.79 2.01001 99.79C2.01001 98.79 1.20002 97.98 0.200016 97.98C-0.799984 97.98 -1.60999 98.79 -1.60999 99.79C-1.60999 100.79 -0.799984 101.6 0.200016 101.6Z" fill="black"/>
<path d="M0.200001 10.18C1.14 10.18 1.9 9.42003 1.9 8.48003C1.9 7.54003 1.14 6.78003 0.200001 6.78003C-0.739999 6.78003 -1.5 7.54003 -1.5 8.48003C-1.49 9.42003 -0.739999 10.18 0.200001 10.18Z" fill="black"/>
<path d="M7.52998 8.44002C8.47998 8.44002 9.23998 7.67002 9.23998 6.73002C9.23998 5.78002 8.46998 5.02002 7.52998 5.02002C6.57998 5.02002 5.81998 5.79002 5.81998 6.73002C5.80998 7.67002 6.57998 8.44002 7.52998 8.44002Z" fill="black"/>
<path d="M15.03 7.83992C15.9744 7.83992 16.74 7.07433 16.74 6.12992C16.74 5.18551 15.9744 4.41992 15.03 4.41992C14.0856 4.41992 13.32 5.18551 13.32 6.12992C13.32 7.07433 14.0856 7.83992 15.03 7.83992Z" fill="black"/>
<path d="M22.54 8.44999C23.5 8.44999 24.27 7.67999 24.27 6.71999C24.27 5.75999 23.5 4.98999 22.54 4.98999C21.58 4.98999 20.81 5.75999 20.81 6.71999C20.81 7.67999 21.59 8.44999 22.54 8.44999Z" fill="black"/>
<path d="M29.87 10.23C30.83 10.23 31.62 9.44998 31.62 8.47998C31.62 7.51998 30.84 6.72998 29.87 6.72998C28.9 6.72998 28.12 7.50998 28.12 8.47998C28.12 9.44998 28.9 10.23 29.87 10.23Z" fill="black"/>
<path d="M36.83 13.1101C37.79 13.1101 38.58 12.3301 38.58 11.3601C38.58 10.4001 37.8 9.61011 36.83 9.61011C35.86 9.61011 35.08 10.3901 35.08 11.3601C35.08 12.3301 35.86 13.1101 36.83 13.1101Z" fill="black"/>
<path d="M43.25 17.06C44.22 17.06 45.01 16.27 45.01 15.3C45.01 14.33 44.22 13.54 43.25 13.54C42.28 13.54 41.49 14.33 41.49 15.3C41.49 16.27 42.27 17.06 43.25 17.06Z" fill="black"/>
<path d="M48.98 21.9699C49.96 21.9699 50.76 21.1699 50.76 20.1899C50.76 19.2099 49.96 18.4099 48.98 18.4099C48 18.4099 47.2 19.2099 47.2 20.1899C47.2 21.1699 47.99 21.9699 48.98 21.9699Z" fill="black"/>
<path d="M53.87 27.6999C54.85 27.6999 55.65 26.8999 55.65 25.9199C55.65 24.9399 54.85 24.1399 53.87 24.1399C52.89 24.1399 52.09 24.9399 52.09 25.9199C52.09 26.8999 52.88 27.6999 53.87 27.6999Z" fill="black"/>
<path d="M57.8 34.14C58.79 34.14 59.6 33.34 59.6 32.34C59.6 31.35 58.8 30.54 57.8 30.54C56.8 30.54 56 31.34 56 32.34C56.01 33.33 56.81 34.14 57.8 34.14Z" fill="black"/>
<path d="M60.69 41.11C61.69 41.11 62.5 40.3 62.5 39.3C62.5 38.3 61.69 37.49 60.69 37.49C59.69 37.49 58.88 38.3 58.88 39.3C58.87 40.3 59.68 41.11 60.69 41.11Z" fill="black"/>
<path d="M62.44 48.4401C63.44 48.4401 64.25 47.6301 64.25 46.6301C64.25 45.6301 63.44 44.8201 62.44 44.8201C61.44 44.8201 60.63 45.6301 60.63 46.6301C60.63 47.6301 61.44 48.4401 62.44 48.4401Z" fill="black"/>
<path d="M69.03 54.3699C69.16 54.3699 69.26 54.2699 69.26 54.1399C69.26 54.0099 69.16 53.9099 69.03 53.9099C68.9 53.9099 68.8 54.0099 68.8 54.1399C68.8 54.2599 68.91 54.3699 69.03 54.3699Z" fill="black"/>
<path d="M68.51 61.8999C68.65 61.8999 68.76 61.7899 68.76 61.6499C68.76 61.5099 68.65 61.3999 68.51 61.3999C68.37 61.3999 68.26 61.5099 68.26 61.6499C68.26 61.7899 68.37 61.8999 68.51 61.8999Z" fill="black"/>
<path d="M66.94 69.27C67.0781 69.27 67.19 69.1581 67.19 69.02C67.19 68.8819 67.0781 68.77 66.94 68.77C66.8019 68.77 66.69 68.8819 66.69 69.02C66.69 69.1581 66.8019 69.27 66.94 69.27Z" fill="black"/>
<path d="M64.37 76.3701C64.5191 76.3701 64.64 76.2492 64.64 76.1001C64.64 75.951 64.5191 75.8301 64.37 75.8301C64.2209 75.8301 64.1 75.951 64.1 76.1001C64.1 76.2492 64.2209 76.3701 64.37 76.3701Z" fill="black"/>
<path d="M60.83 83.02C60.9791 83.02 61.1 82.8991 61.1 82.75C61.1 82.6009 60.9791 82.48 60.83 82.48C60.6809 82.48 60.56 82.6009 60.56 82.75C60.56 82.8991 60.6809 83.02 60.83 83.02Z" fill="black"/>
<path d="M56.4 89.1101C56.5491 89.1101 56.67 88.9892 56.67 88.8401C56.67 88.6909 56.5491 88.5701 56.4 88.5701C56.2509 88.5701 56.13 88.6909 56.13 88.8401C56.13 88.9892 56.2509 89.1101 56.4 89.1101Z" fill="black"/>
<path d="M51.17 94.53C51.3191 94.53 51.44 94.4091 51.44 94.26C51.44 94.1109 51.3191 93.99 51.17 93.99C51.0209 93.99 50.9 94.1109 50.9 94.26C50.9 94.4091 51.0209 94.53 51.17 94.53Z" fill="black"/>
<path d="M45.23 99.1699C45.3791 99.1699 45.5 99.049 45.5 98.8999C45.5 98.7508 45.3791 98.6299 45.23 98.6299C45.0809 98.6299 44.96 98.7508 44.96 98.8999C44.96 99.049 45.0809 99.1699 45.23 99.1699Z" fill="black"/>
<path d="M38.71 102.94C38.8591 102.94 38.98 102.819 38.98 102.67C38.98 102.521 38.8591 102.4 38.71 102.4C38.5609 102.4 38.44 102.521 38.44 102.67C38.44 102.819 38.5609 102.94 38.71 102.94Z" fill="black"/>
<path d="M31.72 105.76C31.8691 105.76 31.99 105.639 31.99 105.49C31.99 105.341 31.8691 105.22 31.72 105.22C31.5709 105.22 31.45 105.341 31.45 105.49C31.45 105.639 31.5709 105.76 31.72 105.76Z" fill="black"/>
<path d="M24.41 107.56C24.55 107.56 24.66 107.45 24.66 107.31C24.66 107.17 24.55 107.06 24.41 107.06C24.27 107.06 24.16 107.17 24.16 107.31C24.16 107.45 24.27 107.56 24.41 107.56Z" fill="black"/>
<path d="M16.92 108.35C17.06 108.35 17.17 108.24 17.17 108.1C17.17 107.96 17.06 107.85 16.92 107.85C16.78 107.85 16.67 107.96 16.67 108.1C16.67 108.24 16.78 108.35 16.92 108.35Z" fill="black"/>
<path d="M9.38997 108.07C9.51997 108.07 9.61997 107.97 9.61997 107.84C9.61997 107.71 9.51997 107.61 9.38997 107.61C9.25997 107.61 9.15997 107.71 9.15997 107.84C9.15997 107.97 9.25997 108.07 9.38997 108.07Z" fill="black"/>
<path d="M1.96999 106.76C2.09999 106.76 2.19999 106.66 2.19999 106.53C2.19999 106.4 2.09999 106.3 1.96999 106.3C1.83999 106.3 1.73999 106.4 1.73999 106.53C1.73999 106.66 1.83999 106.76 1.96999 106.76Z" fill="black"/>
<path d="M1.96999 1.91007C2.06388 1.91007 2.13999 1.83396 2.13999 1.74007C2.13999 1.64618 2.06388 1.57007 1.96999 1.57007C1.8761 1.57007 1.79999 1.64618 1.79999 1.74007C1.79999 1.83396 1.8761 1.91007 1.96999 1.91007Z" fill="black"/>
<path d="M9.38997 0.60001C9.48386 0.60001 9.55997 0.523898 9.55997 0.43001C9.55997 0.336121 9.48386 0.26001 9.38997 0.26001C9.29608 0.26001 9.21997 0.336121 9.21997 0.43001C9.21997 0.523898 9.29608 0.60001 9.38997 0.60001Z" fill="black"/>
<path d="M16.92 0.33C17.01 0.33 17.09 0.26 17.09 0.16C17.09 0.06 17.01 0 16.92 0C16.83 0 16.75 0.07 16.75 0.17C16.75 0.27 16.83 0.33 16.92 0.33Z" fill="black"/>
<path d="M24.41 1.14003C24.51 1.14003 24.59 1.06003 24.59 0.960029C24.59 0.860029 24.51 0.780029 24.41 0.780029C24.31 0.780029 24.23 0.860029 24.23 0.960029C24.23 1.05003 24.31 1.14003 24.41 1.14003Z" fill="black"/>
<path d="M31.72 2.9601C31.82 2.9601 31.9 2.8801 31.9 2.7801C31.9 2.6801 31.82 2.6001 31.72 2.6001C31.62 2.6001 31.54 2.6801 31.54 2.7801C31.54 2.8801 31.62 2.9601 31.72 2.9601Z" fill="black"/>
<path d="M38.71 5.77992C38.8094 5.77992 38.89 5.69933 38.89 5.59992C38.89 5.50051 38.8094 5.41992 38.71 5.41992C38.6106 5.41992 38.53 5.50051 38.53 5.59992C38.53 5.69933 38.6106 5.77992 38.71 5.77992Z" fill="black"/>
<path d="M45.23 9.56992C45.34 9.56992 45.43 9.47992 45.43 9.36992C45.43 9.25992 45.34 9.16992 45.23 9.16992C45.12 9.16992 45.03 9.25992 45.03 9.36992C45.03 9.47992 45.12 9.56992 45.23 9.56992Z" fill="black"/>
<path d="M51.17 14.2C51.28 14.2 51.37 14.11 51.37 14C51.37 13.89 51.28 13.8 51.17 13.8C51.06 13.8 50.97 13.89 50.97 14C50.97 14.11 51.06 14.2 51.17 14.2Z" fill="black"/>
<path d="M56.4 19.6399C56.52 19.6399 56.62 19.54 56.62 19.42C56.62 19.3 56.52 19.2 56.4 19.2C56.28 19.2 56.18 19.3 56.18 19.42C56.18 19.54 56.28 19.6399 56.4 19.6399Z" fill="black"/>
<path d="M60.83 25.73C60.95 25.73 61.05 25.63 61.05 25.51C61.05 25.39 60.95 25.29 60.83 25.29C60.71 25.29 60.61 25.39 60.61 25.51C60.61 25.64 60.71 25.73 60.83 25.73Z" fill="black"/>
<path d="M64.37 32.3899C64.4915 32.3899 64.59 32.2915 64.59 32.1699C64.59 32.0484 64.4915 31.95 64.37 31.95C64.2485 31.95 64.15 32.0484 64.15 32.1699C64.15 32.2915 64.2485 32.3899 64.37 32.3899Z" fill="black"/>
<path d="M66.94 39.48C67.07 39.48 67.17 39.38 67.17 39.25C67.17 39.12 67.07 39.02 66.94 39.02C66.81 39.02 66.71 39.12 66.71 39.25C66.71 39.38 66.81 39.48 66.94 39.48Z" fill="black"/>
<path d="M68.51 46.8499C68.64 46.8499 68.74 46.7499 68.74 46.6199C68.74 46.4899 68.64 46.3899 68.51 46.3899C68.38 46.3899 68.28 46.4899 68.28 46.6199C68.28 46.7499 68.38 46.8499 68.51 46.8499Z" fill="black"/>
</g>
<defs>
<clipPath id="clip0_96_1481">
<rect width="108.27" height="108.35" fill="white" transform="translate(-39)"/>
</clipPath>
</defs>
</svg>
