<svg width="317" height="169" viewBox="0 0 317 169" fill="none" xmlns="http://www.w3.org/2000/svg">
<path d="M314.646 38.5654C312.693 35.5899 309.311 34.7468 306.276 33.788C301.497 32.2672 296.673 30.7464 291.804 29.5893C290.331 29.2421 289.189 31.6391 290.722 32.4325C293.112 33.6723 295.561 34.7468 298.011 35.8544C300.64 37.0446 304.743 37.9868 306.982 39.8548C307.102 39.9539 307.208 40.0697 307.328 40.1688C286.274 57.8565 259.69 66.8161 233.211 63.7414C232.414 63.6422 231.618 63.543 230.822 63.4273C238.546 57.8896 244.226 49.6574 245.579 38.0695C247.908 18.0675 233.947 -0.000405937 215.418 0.0161246C198.377 0.0326552 184.476 18.4146 187.782 36.9123C190.412 51.5749 201.202 60.3692 213.51 65.3118C190.773 71.7753 163.873 62.5512 143.33 53.6908C119.21 43.2931 92.8517 28.4817 66.3879 37.7223C47.1073 44.4668 33.0864 63.7579 31.3582 85.9089C31.3131 86.4544 31.283 86.9999 31.268 87.5619C24.5055 89.8266 18.1187 93.1658 12.874 97.0174C-8.22493 112.457 -19.2102 139.435 -16.6254 166.991C-16.5052 168.314 -14.6117 168.363 -14.7019 166.991C-16.6856 137.236 -2.75483 108.308 22.1762 95.5462C25.0165 94.0915 28.0671 92.8021 31.2229 91.7442C31.824 111.3 42.2833 135.897 61.9246 136.558C80.7093 137.187 86.1043 111.663 76.0056 97.7448C66.4931 84.6195 51.1046 82.5697 36.6029 86.0246C37.5346 74.9987 41.7423 64.5183 48.8354 56.3522C70.4604 31.4407 102.409 41.359 127.671 52.7817C151.956 63.7579 177.052 74.9656 203.877 72.6348C210.128 72.0893 216.485 70.6677 222.316 68.1716C226.944 69.3618 231.558 70.0891 235.841 70.4528C262.29 72.734 288.859 63.8571 310.048 46.467C310.048 48.4341 309.597 50.55 309.311 52.8312C308.861 56.468 308.38 60.0882 307.989 63.7414C307.613 67.2459 313.129 68.0889 313.624 64.5845C314.361 59.2947 314.962 53.9719 315.563 48.649C315.969 45.1445 316.63 41.607 314.646 38.5654ZM65.3209 93.7609C76.7119 101.216 83.5195 126.045 65.7717 130.624C48.8956 134.988 38.1056 110.754 36.663 96.1578C36.4676 94.1741 36.3925 92.207 36.4075 90.2399C46.2657 87.876 56.7551 88.157 65.3209 93.7609ZM222.481 61.7577C214.096 59.5757 205.981 55.7076 199.97 48.9466C190.202 37.9703 190.983 20.8612 202.164 11.3396C213.374 1.78489 230.205 6.95896 237.028 20.1338C244.362 34.284 238.05 52.3188 225.697 59.9394C224.645 60.6006 223.563 61.1957 222.481 61.7577Z" fill="#3F3E3E"/>
</svg>
