<svg width="313" height="215" viewBox="0 0 313 215" fill="none" xmlns="http://www.w3.org/2000/svg">
<path d="M4.70045 213.908C11.6408 213.58 18.5701 213.258 25.5104 212.931C27.6085 212.836 28.4078 209.96 27.4288 208.062C25.4988 204.356 23.5648 200.637 21.6458 196.927C40.957 181.052 64.3902 173.851 87.8643 172.149C112.848 170.342 140.708 178.664 163.835 163.918C168.748 160.785 174.288 155.517 179.118 149.107C191.515 156.772 206.925 159.124 219.517 156.291C236.229 152.532 250.311 139.039 256.745 120.84C272.558 117.515 287.985 104.312 297.26 90.4749C314.181 65.2058 317.705 30.501 306.637 1.07792C305.861 -0.967998 303.121 0.159057 303.847 2.28576C311.626 24.8637 311.444 50.8143 302.104 72.7275C293.612 92.6605 277.295 110.109 258.546 114.853C259.27 111.936 259.8 108.911 260.132 105.809C262.165 86.2754 251.45 52.8831 230.26 64.0832C210.934 74.2992 214.774 103.434 230.525 115.313C236.993 120.19 244.052 122.001 251.157 121.602C245.181 135.935 233.876 146.672 220.354 150.248C208.351 153.418 194 151.48 182.355 144.481C191.242 130.678 196.037 113.218 186.035 100.123C180.118 92.3739 170.732 91.6594 164.284 98.9186C157.06 107.06 156.582 119.604 161.302 129.543C164.558 136.402 169.364 141.984 175.039 146.302C165.453 158.514 151.309 165.258 136.938 166.465C125.405 167.435 113.863 166.056 102.318 165.847C90.8429 165.623 79.3271 166.526 68.0072 168.882C50.4682 172.541 33.4911 179.743 18.9076 191.678C17.9056 189.745 16.8886 187.803 15.8867 185.87C15.2562 184.013 14.6736 182.15 14.1161 180.246C13.7064 178.826 12.5039 178.311 11.4365 178.522C10.0832 178.043 8.45872 179.279 8.02065 180.977C5.3992 191.15 2.79673 201.345 0.127346 211.524C-0.739829 214.828 3.04616 216.103 4.70045 213.908ZM226.996 104.593C221.16 96.4984 219.331 84.9093 225.029 76.0519C231.135 66.5745 241.899 64.843 248.76 74.2542C254.696 82.3939 256.453 94.3548 255.39 104.785C255.005 108.606 254.253 112.289 253.206 115.819C243.476 116.866 233.579 113.71 226.996 104.593ZM167.618 130.344C161.867 121.428 160.575 105.051 171.409 100.212C176.365 97.9929 181.326 101.525 183.966 106.492C187.072 112.336 186.583 119.678 184.934 125.998C183.408 131.865 181.102 137.094 178.231 141.695C174.145 138.627 170.513 134.845 167.618 130.344Z" fill="#3F3E3E"/>
</svg>
